<svg width="23" height="23" viewBox="0 0 23 23" fill="none" xmlns="http://www.w3.org/2000/svg">
<g clip-path="url(#clip0_71_158)">
<path fill-rule="evenodd" clip-rule="evenodd" d="M11.5 23C9.22553 23 7.00212 22.3255 5.11095 21.0619C3.21979 19.7983 1.74581 18.0022 0.875402 15.9009C0.00499467 13.7995 -0.22276 11.4872 0.22097 9.25646C0.6647 7.02568 1.75998 4.97658 3.36829 3.36828C4.97659 1.75998 7.02569 0.664706 9.25647 0.220976C11.4872 -0.222754 13.7995 0.0049774 15.9009 0.875385C18.0022 1.74579 19.7983 3.21978 21.0619 5.11094C22.3256 7.00211 23 9.22552 23 11.5C23 14.55 21.7884 17.4751 19.6317 19.6317C17.4751 21.7884 14.55 23 11.5 23ZM4.9887 14.0933C4.74141 13.8432 4.6027 13.5058 4.6027 13.1541C4.6027 12.8024 4.74141 12.4649 4.9887 12.2149L5.66569 11.5418C5.78081 11.4256 5.91809 11.3338 6.0694 11.2717C6.22071 11.2096 6.38297 11.1785 6.54651 11.1804C6.71005 11.1822 6.87155 11.2168 7.02144 11.2823C7.17133 11.3477 7.30654 11.4426 7.41905 11.5613L8.61504 12.8022C8.67207 12.8624 8.74076 12.9103 8.81691 12.943C8.89307 12.9758 8.9751 12.9927 9.05799 12.9927C9.14089 12.9927 9.22292 12.9758 9.29907 12.943C9.37523 12.9103 9.44389 12.8624 9.50092 12.8022L15.5959 6.51935C15.7092 6.39981 15.8456 6.30441 15.9967 6.2389C16.1479 6.1734 16.3107 6.13914 16.4754 6.13817C16.6401 6.1372 16.8033 6.16955 16.9552 6.23328C17.1071 6.29701 17.2445 6.3908 17.3593 6.50901L18.0167 7.1737C18.2579 7.4227 18.3929 7.75581 18.3929 8.10252C18.3929 8.44923 18.2579 8.78234 18.0167 9.03134L9.92489 17.2542C9.81197 17.3711 9.67685 17.4643 9.52745 17.5283C9.37805 17.5922 9.21736 17.6258 9.05483 17.6268C8.89231 17.6279 8.73121 17.5965 8.58098 17.5345C8.43075 17.4725 8.29441 17.3811 8.17996 17.2657L4.9887 14.0933Z" fill="#5AFF02"/>
</g>
<defs>
<clipPath id="clip0_71_158">
<rect width="23" height="23" fill="white"/>
</clipPath>
</defs>
</svg>
