<svg width="90" height="90" viewBox="0 0 90 90" fill="none" xmlns="http://www.w3.org/2000/svg">
<path d="M79.5937 62.5697C76.3115 58.5788 71.8171 52.9256 71.8171 47.1572V28.7916C71.8171 12.9713 59.9849 0.0984497 44.8621 0.0984497C29.7365 0.0984497 17.9971 12.9713 17.9971 28.7916V47.1572C17.9971 52.8272 13.1202 58.185 10.0293 62.3447C7.24775 66.0797 5.05118 69.0328 6.53618 71.9831C7.83837 74.5791 11.1037 74.911 13.8009 74.911H29.9165C29.9221 83.191 36.6356 89.9044 44.9156 89.9044C53.1956 89.9044 59.9146 83.1938 59.9174 74.911H76.4099C78.1256 74.911 82.1362 74.911 83.5171 71.9916C84.9093 69.0385 82.6818 66.3244 79.5937 62.5697ZM44.9127 84.0122C39.884 84.0122 35.8031 79.9397 35.7974 74.9138H54.0281C54.0196 79.9397 49.9443 84.0122 44.9127 84.0122ZM76.4099 68.9231H13.7981C13.3677 68.9231 13.0077 68.9091 12.7124 68.8894C13.2918 67.9922 14.1412 66.8447 14.8359 65.9138C18.2615 61.3097 23.9906 54.8072 23.9906 47.1572V28.7916C23.9906 16.2703 33.0468 6.08626 44.8677 6.08626C56.6887 6.08626 65.8349 16.2731 65.8349 28.7916V47.1572C65.8349 55.0688 71.1168 61.681 74.9727 66.3722C75.6224 67.1625 76.3987 68.1075 77.0034 68.9175C76.8234 68.9231 76.6265 68.926 76.4156 68.926L76.4099 68.9231Z" fill="#D9D9D9" fill-opacity="0.7"/>
</svg>
