<svg width="90" height="90" viewBox="0 0 90 90" fill="none" xmlns="http://www.w3.org/2000/svg">
<path d="M83.809 22.2691C83.4848 20.6276 82.7538 19.0761 81.6874 17.7718C81.4708 17.498 81.2443 17.2544 80.9965 17.0072C79.0993 15.0961 76.4601 14 73.7555 14H16.2442C13.5095 14 10.9375 15.0685 9.00193 17.0083C8.75696 17.2531 8.52982 17.4992 8.30496 17.7817C7.24312 19.0806 6.51538 20.6299 6.19896 22.2737C6.06673 22.9192 6 23.5881 6 24.2648V64.7361C6 66.1441 6.28549 67.5151 6.85145 68.8186C7.34123 69.9761 8.08437 71.0734 9.00132 71.9917C9.23228 72.222 9.46171 72.4345 9.70668 72.6417C11.54 74.1629 13.8614 75 16.2442 75H73.7555C76.1537 75 78.4728 74.1597 80.3012 72.6249C80.5456 72.4267 80.7721 72.2187 80.9987 71.9917C81.885 71.1045 82.5895 70.0852 83.0958 68.9611L83.1626 68.8009C83.718 67.5222 84 66.1556 84 64.7363V24.2648C84 23.597 83.9357 22.9237 83.809 22.2691ZM11.3051 20.5508C11.4499 20.3384 11.6349 20.1202 11.8709 19.8819C13.0422 18.7089 14.5957 18.0634 16.2441 18.0634H73.7553C75.4182 18.0634 76.9721 18.71 78.1305 19.8842C78.3305 20.0868 78.5216 20.3116 78.6882 20.5363L79.128 21.1286L48.4308 47.9352C47.4844 48.7664 46.266 49.2239 44.9995 49.2239C43.7456 49.2239 42.5282 48.7675 41.5706 47.9362L10.9039 21.1362L11.3051 20.5508ZM10.076 65.0935C10.0594 64.9833 10.0555 64.8608 10.0555 64.7361V25.1028L33.8775 45.925L10.2959 66.5259L10.076 65.0935ZM76.8245 70.1195C75.9025 70.6526 74.8406 70.9353 73.7555 70.9353H16.2442C15.1585 70.9353 14.0971 70.6526 13.1757 70.1195L12.2117 69.5596L36.5769 48.2844L39.2472 50.6116C40.8489 52.0049 42.8916 52.773 44.9998 52.773C47.1159 52.773 49.1619 52.0049 50.7626 50.6116L53.4318 48.2833L77.7886 69.5609L76.8245 70.1195ZM79.9434 64.7361C79.9434 64.8587 79.9411 64.9799 79.9257 65.0878L79.7146 66.5337L56.1229 45.9361L79.9434 25.1129V64.7361Z" fill="#D9D9D9" fill-opacity="0.7"/>
</svg>
