<svg width="90" height="90" viewBox="0 0 90 90" fill="none" xmlns="http://www.w3.org/2000/svg">
<path d="M33.4091 75.9467H14.6591C12.5881 75.9467 10.9091 74.2678 10.9091 72.1967V43.75C10.9091 42.7555 11.3042 41.8015 12.0075 41.0983L42.0075 11.0984C43.4719 9.63388 45.8464 9.63388 47.3107 11.0984L77.3107 41.0983C78.0139 41.8015 78.4091 42.7555 78.4091 43.75V72.1967C78.4091 74.2678 76.7302 75.9467 74.6591 75.9467H55.9091M33.4091 75.9467H55.9091M33.4091 75.9467V53.4467C33.4091 51.3756 35.0881 49.6967 37.1591 49.6967H52.1591C54.2302 49.6967 55.9091 51.3756 55.9091 53.4467V75.9467" stroke="#D9D9D9" stroke-opacity="0.7" stroke-width="4" stroke-linejoin="round"/>
</svg>
