<?xml version="1.0" encoding="utf-8"?>
<!-- Uploaded to: SVG Repo, www.svgrepo.com, Generator: SVG Repo Mixer Tools -->
<svg width="800px" height="800px" viewBox="0 0 1024 1024" class="icon"  version="1.1" xmlns="http://www.w3.org/2000/svg"><path d="M503.53152 313.7024m-262.5024 0a262.5024 262.5024 0 1 0 525.0048 0 262.5024 262.5024 0 1 0-525.0048 0Z" fill="#F2FAFE" /><path d="M279.42912 694.74304v-0.04096l-3.47136 0.04096C164.33152 694.74304 73.6256 605.96224 71.71072 495.7184L71.68 492.1856C71.68 380.3136 163.14368 289.61792 275.968 289.61792c102.912 0 188.04736 75.4688 202.20928 173.62944h4.47488v-1.36192c0-127.32416 103.04512-230.77888 230.94272-232.83712l3.8912-0.03072C847.17568 229.0176 952.32 333.28128 952.32 461.8752c0 128.6144-105.14432 232.86784-234.83392 232.86784l2.60096-0.03072v0.03072H279.43936z" fill="#DFF1FB" /><path d="M347.76064 743.2192a29.63456 29.63456 0 0 1 17.7152 37.98016l-49.23392 135.2704a29.63456 29.63456 0 0 1-55.7056-20.2752l49.24416-135.2704a29.63456 29.63456 0 0 1 37.9904-17.7152zM745.74848 743.2192a29.63456 29.63456 0 0 1 17.7152 37.98016l-49.24416 135.2704a29.63456 29.63456 0 0 1-55.69536-20.2752l49.23392-135.2704a29.63456 29.63456 0 0 1 37.9904-17.7152zM465.8688 740.1472a29.63456 29.63456 0 0 1 17.7152 37.9904l-14.47936 39.7824a29.63456 29.63456 0 0 1-55.7056-20.2752l14.47936-39.7824a29.63456 29.63456 0 0 1 37.9904-17.7152zM608.47104 740.1472a29.63456 29.63456 0 0 1 17.7152 37.9904l-14.47936 39.7824a29.63456 29.63456 0 0 1-55.7056-20.2752l14.4896-39.7824a29.63456 29.63456 0 0 1 37.9904-17.7152zM423.5264 875.6224a29.63456 29.63456 0 0 1 17.7152 37.9904l-14.47936 39.79264a29.63456 29.63456 0 0 1-55.7056-20.2752l14.4896-39.7824a29.63456 29.63456 0 0 1 37.9904-17.7152zM566.13888 875.6224a29.63456 29.63456 0 0 1 17.7152 37.9904l-14.4896 39.79264a29.63456 29.63456 0 0 1-55.69536-20.2752l14.47936-39.7824a29.63456 29.63456 0 0 1 37.9904-17.7152z" fill="#DFF1FB" /></svg>