<svg width="23" height="23" viewBox="0 0 23 23" fill="none" xmlns="http://www.w3.org/2000/svg">
<g clip-path="url(#clip0_71_174)">
<path fill-rule="evenodd" clip-rule="evenodd" d="M11.5 23C9.22553 23 7.00212 22.3255 5.11095 21.0619C3.21979 19.7983 1.74581 18.0022 0.875402 15.9009C0.00499467 13.7995 -0.22276 11.4872 0.22097 9.25646C0.6647 7.02568 1.75998 4.97658 3.36829 3.36828C4.97659 1.75998 7.02569 0.664706 9.25647 0.220976C11.4872 -0.222754 13.7995 0.0049774 15.9009 0.875385C18.0022 1.74579 19.7983 3.21978 21.0619 5.11094C22.3256 7.00211 23 9.22552 23 11.5C23 13.0102 22.7025 14.5056 22.1246 15.9009C21.5467 17.2961 20.6996 18.5639 19.6317 19.6317C18.5639 20.6996 17.2961 21.5467 15.9009 22.1246C14.5056 22.7026 13.0102 23 11.5 23ZM17.25 15.3153C17.4947 15.5603 17.6322 15.8924 17.6322 16.2386C17.6322 16.5848 17.4947 16.9169 17.25 17.1618L17.1653 17.2462C16.9195 17.4916 16.5863 17.6295 16.239 17.6295C15.8916 17.6295 15.5584 17.4916 15.3126 17.2462L11.9531 13.8901C11.8302 13.7673 11.6636 13.6983 11.4899 13.6983C11.3161 13.6983 11.1495 13.7673 11.0266 13.8901L7.67587 17.2431C7.55417 17.3649 7.40968 17.4614 7.25064 17.5273C7.0916 17.5932 6.92113 17.6271 6.74898 17.6271C6.57684 17.6271 6.40637 17.5932 6.24733 17.5273C6.08829 17.4614 5.94378 17.3649 5.82207 17.2431L5.74772 17.1691C5.62554 17.0472 5.52872 16.9023 5.46286 16.7428C5.39701 16.5833 5.36343 16.4123 5.36403 16.2397C5.36464 16.0671 5.39942 15.8964 5.4664 15.7373C5.53337 15.5783 5.6312 15.4341 5.75422 15.313L9.14058 11.9646C9.20259 11.9039 9.25187 11.8315 9.2855 11.7515C9.31914 11.6715 9.33646 11.5856 9.33646 11.4989C9.33646 11.4121 9.31914 11.3262 9.2855 11.2462C9.25187 11.1662 9.20259 11.0938 9.14058 11.0331L5.75537 7.68852C5.63225 7.56748 5.53435 7.42323 5.46731 7.26412C5.40026 7.10501 5.3654 6.93419 5.36476 6.76153C5.36412 6.58887 5.3977 6.41779 5.46356 6.25818C5.52943 6.09858 5.62625 5.95362 5.74847 5.83166L5.82247 5.75767C5.94416 5.63594 6.08865 5.53943 6.24771 5.47365C6.40676 5.40787 6.57724 5.37412 6.74936 5.37433C7.11123 5.37433 7.99711 6.07776 8.23363 6.31542L11.0266 9.10877C11.0874 9.16965 11.1596 9.21796 11.2391 9.25092C11.3186 9.28387 11.4038 9.30083 11.4899 9.30083C11.5759 9.30083 11.6611 9.28387 11.7406 9.25092C11.8201 9.21796 11.8923 9.16965 11.9531 9.10877L15.3126 5.75537C15.5584 5.50996 15.8915 5.37211 16.2388 5.37211C16.5861 5.37211 16.9192 5.50996 17.1649 5.75537L17.25 5.84316C17.4948 6.08813 17.6323 6.42028 17.6323 6.76661C17.6323 7.11293 17.4948 7.44508 17.25 7.69006L13.9047 11.0392C13.844 11.0998 13.7958 11.1717 13.763 11.2508C13.7302 11.33 13.7133 11.4149 13.7133 11.5006C13.7133 11.5863 13.7302 11.6712 13.763 11.7503C13.7958 11.8295 13.844 11.9014 13.9047 11.9619L17.25 15.3153Z" fill="#A0A0A0" fill-opacity="0.6"/>
</g>
<defs>
<clipPath id="clip0_71_174">
<rect width="23" height="23" fill="white"/>
</clipPath>
</defs>
</svg>
