<svg width="99" height="99" viewBox="0 0 99 99" fill="none" xmlns="http://www.w3.org/2000/svg">
<path d="M49.5 61.875C56.3345 61.875 61.875 56.3345 61.875 49.5C61.875 42.6655 56.3345 37.125 49.5 37.125C42.6655 37.125 37.125 42.6655 37.125 49.5C37.125 56.3345 42.6655 61.875 49.5 61.875Z" stroke="#D9D9D9" stroke-opacity="0.7" stroke-width="4"/>
<path d="M56.7823 8.87799C55.2659 8.25 53.3441 8.25 49.5 8.25C45.6559 8.25 43.7341 8.25 42.2177 8.87799C40.1963 9.71532 38.5903 11.3214 37.7529 13.3428C37.3707 14.2657 37.2211 15.3388 37.1626 16.9042C37.0766 19.2047 35.8968 21.334 33.9031 22.4851C31.9095 23.6361 29.4755 23.5931 27.4403 22.5174C26.0553 21.7854 25.0512 21.3783 24.0609 21.248C21.8915 20.9623 19.6976 21.5502 17.9617 22.8822C16.6598 23.8812 15.6988 25.5457 13.7768 28.8747C11.8548 32.2037 10.8938 33.8682 10.6796 35.4953C10.394 37.6645 10.9819 39.8585 12.3139 41.5944C12.9218 42.3868 13.7763 43.0526 15.1024 43.8859C17.0519 45.111 18.3063 47.1978 18.3062 49.5C18.306 51.8022 17.0517 53.8886 15.1024 55.1133C13.776 55.947 12.9215 56.6131 12.3134 57.4056C10.9814 59.1414 10.3936 61.335 10.6792 63.5044C10.8934 65.1313 11.8544 66.7961 13.7764 70.125C15.6984 73.4539 16.6594 75.1187 17.9613 76.1174C19.6972 77.4493 21.8911 78.0372 24.0605 77.7517C25.0507 77.6214 26.0548 77.2142 27.4397 76.4824C29.475 75.4066 31.9092 75.3637 33.9029 76.5146C35.8967 77.6659 37.0766 79.7952 37.1626 82.0962C37.2211 83.6612 37.3707 84.7345 37.7529 85.6573C38.5903 87.6785 40.1963 89.2848 42.2177 90.1222C43.7341 90.75 45.6559 90.75 49.5 90.75C53.3441 90.75 55.2659 90.75 56.7823 90.1222C58.8035 89.2848 60.4098 87.6785 61.2467 85.6573C61.6291 84.7345 61.7789 83.6612 61.8374 82.0957C61.9232 79.7952 63.103 77.6659 65.0966 76.5146C67.0902 75.3633 69.5244 75.4066 71.5601 76.4824C72.9448 77.2142 73.9489 77.6209 74.9389 77.7513C77.1082 78.0372 79.3023 77.4493 81.0381 76.1174C82.3399 75.1183 83.3011 73.4539 85.2229 70.1246C87.1451 66.7957 88.1063 65.1313 88.3204 63.5044C88.6058 61.335 88.018 59.1409 86.686 57.4051C86.078 56.6127 85.2233 55.9465 83.8971 55.1133C81.9481 53.8886 80.6936 51.8017 80.6936 49.4996C80.6936 47.1974 81.9481 45.1114 83.8971 43.8867C85.2237 43.053 86.0784 42.3873 86.6864 41.5944C88.0184 39.8588 88.6062 37.6648 88.3208 35.4955C88.1067 33.8685 87.1456 32.204 85.2233 28.875C83.3015 25.546 82.3403 23.8815 81.0385 22.8825C79.3027 21.5505 77.1086 20.9626 74.9393 21.2482C73.9493 21.3786 72.9452 21.7856 71.5601 22.5175C69.5248 23.5933 67.0906 23.6363 65.097 22.4852C63.103 21.3341 61.9232 19.2046 61.8374 16.904C61.7789 15.3387 61.6291 14.2656 61.2467 13.3428C60.4098 11.3214 58.8035 9.71532 56.7823 8.87799Z" stroke="#D9D9D9" stroke-opacity="0.7" stroke-width="3"/>
</svg>
