<?xml version="1.0" encoding="utf-8"?>
<!-- Uploaded to: SVG Repo, www.svgrepo.com, Generator: SVG Repo Mixer Tools -->
<svg width="800px" height="800px" viewBox="0 0 1024 1024" class="icon"  version="1.1" xmlns="http://www.w3.org/2000/svg"><path d="M500.45952 319.85664m-248.17664 0a248.17664 248.17664 0 1 0 496.35328 0 248.17664 248.17664 0 1 0-496.35328 0Z" fill="#F2FAFE" /><path d="M288.58368 680.12032l-0.01024-0.03072-3.2768 0.03072C179.79392 680.12032 94.04416 596.23424 92.19072 492.05248L92.16 488.61184c0-105.7792 86.46656-191.51872 193.13664-191.51872 97.30048 0 177.79712 71.34208 191.1808 164.1472h4.23936v-1.28c0-120.3712 97.42336-218.18368 218.34752-220.12928l3.67616-0.03072c122.624 0 222.02368 98.57024 222.02368 220.16s-99.39968 220.16-222.02368 220.16l2.4576-0.02048 0.01024 0.02048H288.58368z" fill="#DFF1FB" /><path d="M236.26752 720.14848m36.02432 0l0 0q36.02432 0 36.02432 36.02432l0 0q0 36.02432-36.02432 36.02432l0 0q-36.02432 0-36.02432-36.02432l0 0q0-36.02432 36.02432-36.02432Z" fill="#DFF1FB" /><path d="M508.4672 720.14848m36.02432 0l0 0q36.02432 0 36.02432 36.02432l0 0q0 36.02432-36.02432 36.02432l0 0q-36.02432 0-36.02432-36.02432l0 0q0-36.02432 36.02432-36.02432Z" fill="#DFF1FB" /><path d="M480.44032 832.23552c6.63552 0 12.01152 5.376 12.01152 12.00128v27.2384l23.58272-13.6192a12.01152 12.01152 0 0 1 12.01152 20.80768l-23.59296 13.60896 23.59296 13.6192a12.01152 12.01152 0 1 1-12.01152 20.79744l-23.58272-13.6192v27.2384a12.01152 12.01152 0 0 1-24.02304 0v-27.2384l-23.58272 13.6192a12.01152 12.01152 0 0 1-12.01152-20.7872l23.59296-13.62944-23.59296-13.6192a12.01152 12.01152 0 1 1 12.01152-20.7872l23.58272 13.60896v-27.2384c0-6.62528 5.38624-12.00128 12.01152-12.00128zM345.9072 832.23552c6.64576 0 12.02176 5.376 12.02176 12.00128v27.2384l23.58272-13.6192a12.01152 12.01152 0 0 1 12.01152 20.80768l-23.6032 13.60896 23.6032 13.6192a12.01152 12.01152 0 1 1-12.01152 20.79744l-23.59296-13.6192v27.2384a12.01152 12.01152 0 1 1-24.0128 0v-27.2384l-23.58272 13.6192a12.01152 12.01152 0 0 1-12.01152-20.7872l23.58272-13.62944-23.58272-13.6192a12.01152 12.01152 0 1 1 12.01152-20.7872l23.57248 13.60896 0.01024-27.2384c0-6.62528 5.376-12.00128 12.01152-12.00128zM409.9584 696.13568c6.63552 0 12.01152 5.376 12.01152 12.01152v27.22816l23.58272-13.6192a12.01152 12.01152 0 0 1 12.01152 20.80768l-23.59296 13.60896 23.59296 13.6192a12.01152 12.01152 0 1 1-12.01152 20.80768l-23.58272-13.62944v27.2384a12.01152 12.01152 0 0 1-24.0128 0l-0.01024-27.2384-23.58272 13.6192a12.01152 12.01152 0 1 1-12.00128-20.7872l23.58272-13.62944-23.58272-13.6192a12.01152 12.01152 0 1 1 12.00128-20.7872l23.58272 13.60896v-27.2384c0-6.62528 5.38624-12.00128 12.01152-12.00128zM682.15808 696.13568c6.63552 0 12.01152 5.376 12.01152 12.01152v27.22816l23.58272-13.6192a12.01152 12.01152 0 0 1 12.01152 20.80768l-23.59296 13.60896 23.59296 13.6192a12.01152 12.01152 0 1 1-12.01152 20.80768l-23.58272-13.62944v27.2384a12.01152 12.01152 0 0 1-24.02304 0v-27.2384l-23.58272 13.6192a12.01152 12.01152 0 0 1-12.01152-20.7872l23.59296-13.62944-23.59296-13.6192a12.01152 12.01152 0 1 1 12.01152-20.7872l23.58272 13.60896v-27.2384c0-6.62528 5.38624-12.00128 12.01152-12.00128z" fill="#DFF1FB" /><path d="M564.50048 832.23552m36.02432 0l0 0q36.02432 0 36.02432 36.02432l0 0q0 36.02432-36.02432 36.02432l0 0q-36.02432 0-36.02432-36.02432l0 0q0-36.02432 36.02432-36.02432Z" fill="#DFF1FB" /></svg>