<svg width="90" height="90" viewBox="0 0 90 90" fill="none" xmlns="http://www.w3.org/2000/svg">
<g clip-path="url(#clip0_90_2)">
<path d="M73.225 85H16.775C16.2169 85.0033 15.6636 84.8966 15.1467 84.6861C14.6298 84.4755 14.1594 84.1652 13.7625 83.7729C13.3655 83.3806 13.0497 82.9139 12.8331 82.3995C12.6164 81.8851 12.5033 81.3331 12.5 80.775V16.725C12.5148 16.1066 12.6607 15.4983 12.9278 14.9404C13.195 14.3824 13.5775 13.8875 14.05 13.4882C14.5225 13.089 15.0743 12.7944 15.669 12.6241C16.2637 12.4537 16.8878 12.4115 17.5 12.5H22.5V17.5H17.5V80H72.5V17.5H67.5V12.5H73.125C73.6914 12.4833 74.2555 12.5801 74.784 12.7846C75.3125 12.9892 75.7948 13.2973 76.2024 13.691C76.61 14.0847 76.9348 14.5559 77.1577 15.0769C77.3805 15.598 77.4969 16.1583 77.5 16.725V80.775C77.4967 81.3331 77.3836 81.8851 77.1669 82.3995C76.9503 82.9139 76.6345 83.3806 76.2375 83.7729C75.8406 84.1652 75.3702 84.4755 74.8533 84.6861C74.3364 84.8966 73.7831 85.0033 73.225 85Z" fill="#D9D9D9" fill-opacity="0.7"/>
<path d="M41.6501 64.4L28.2501 51C27.8437 50.5189 27.6338 49.9021 27.6625 49.2729C27.6912 48.6438 27.9562 48.0486 28.4047 47.6065C28.8532 47.1643 29.4521 46.9077 30.0815 46.888C30.711 46.8682 31.3248 47.0868 31.8001 47.5L41.6501 57.35L63.2501 35.75C63.7283 35.3404 64.3435 35.1264 64.9727 35.1507C65.6019 35.175 66.1988 35.4359 66.644 35.8811C67.0892 36.3263 67.3501 36.9232 67.3744 37.5524C67.3987 38.1816 67.1847 38.7967 66.7751 39.275L41.6501 64.4Z" fill="#D9D9D9" fill-opacity="0.7"/>
<path d="M65 27.5H25V18.325C25.0066 16.7821 25.6224 15.3043 26.7134 14.2134C27.8043 13.1224 29.2821 12.5066 30.825 12.5H35.3C35.8508 10.349 37.1018 8.44241 38.8558 7.0809C40.6098 5.7194 42.7671 4.98039 44.9875 4.98039C47.2079 4.98039 49.3652 5.7194 51.1192 7.0809C52.8732 8.44241 54.1242 10.349 54.675 12.5H59.15C60.6972 12.5 62.1814 13.1129 63.2778 14.2046C64.3741 15.2963 64.9934 16.7778 65 18.325V27.5ZM30 22.5H60V18.325C60 18.1062 59.9131 17.8964 59.7584 17.7416C59.6036 17.5869 59.3938 17.5 59.175 17.5H50V15C50 13.6739 49.4732 12.4021 48.5355 11.4645C47.5979 10.5268 46.3261 10 45 10C43.6739 10 42.4021 10.5268 41.4645 11.4645C40.5268 12.4021 40 13.6739 40 15V17.5H30.825C30.7167 17.5 30.6094 17.5213 30.5093 17.5628C30.4092 17.6043 30.3182 17.665 30.2416 17.7416C30.165 17.8182 30.1043 17.9092 30.0628 18.0093C30.0213 18.1094 30 18.2167 30 18.325V22.5Z" fill="#D9D9D9" fill-opacity="0.7"/>
</g>
<defs>
<clipPath id="clip0_90_2">
<rect width="90" height="90" fill="white"/>
</clipPath>
</defs>
</svg>
